<svg xmlns="http://www.w3.org/2000/svg" viewBox="0 0 4000 964" preserveAspectRatio="xMidYMid meet">
<g transform="translate(0,964) scale(0.1,-0.1)" fill="#0E4E5C" stroke="none">
<path d="M8664 9556 c-22 -7 -54 -22 -70 -33 -50 -35 -170 -103 -180 -103 -6
0 -31 -13 -56 -30 -29 -19 -71 -35 -117 -43 -52 -10 -79 -21 -100 -41 -15 -15
-45 -31 -67 -37 -21 -6 -59 -23 -84 -39 -25 -15 -67 -33 -94 -39 -27 -7 -70
-23 -97 -37 -27 -13 -72 -29 -101 -35 -29 -6 -73 -22 -98 -36 -61 -33 -256
-98 -360 -118 -47 -10 -105 -25 -130 -35 -25 -9 -76 -23 -115 -29 -38 -7 -101
-25 -140 -40 -38 -16 -98 -31 -131 -35 -34 -4 -102 -18 -150 -31 -49 -13 -134
-29 -189 -35 -241 -26 -275 -31 -331 -51 -32 -11 -114 -26 -180 -34 -67 -7
-166 -23 -220 -34 -55 -12 -116 -23 -137 -26 -23 -4 -43 -14 -52 -28 -18 -28
-41 -329 -38 -502 4 -226 34 -648 54 -745 27 -137 26 -163 -12 -194 l-31 -26
-799 0 c-690 0 -805 -2 -836 -15 -20 -8 -63 -44 -95 -80 -33 -36 -66 -65 -73
-65 -7 0 -23 -12 -36 -26 -73 -79 -168 -169 -539 -507 -47 -43 -120 -110 -162
-150 -42 -40 -99 -92 -125 -117 -27 -25 -99 -92 -159 -150 -61 -58 -167 -157
-234 -220 -68 -63 -153 -144 -189 -180 -209 -207 -512 -490 -524 -490 -8 0
-25 8 -37 18 l-21 17 -2 1922 c-2 1802 -3 1923 -19 1939 -16 16 -68 17 -725
15 -389 -1 -718 -5 -730 -8 -12 -2 -24 -11 -27 -20 -4 -10 -9 -6148 -6 -6956
0 -46 24 -47 768 -47 l699 0 28 22 c27 21 27 21 21 117 -3 53 -7 319 -8 591
-3 493 -3 495 19 537 22 41 126 157 227 252 28 25 152 148 277 274 276 276
262 271 365 141 17 -22 38 -54 48 -71 9 -18 25 -43 36 -55 11 -13 40 -45 64
-73 63 -72 99 -115 126 -155 14 -19 51 -61 82 -93 32 -32 58 -63 58 -68 0 -6
17 -27 37 -49 21 -21 58 -64 83 -95 25 -31 65 -80 90 -108 68 -78 201 -242
234 -288 15 -22 53 -66 84 -97 68 -68 139 -154 153 -186 6 -13 31 -40 56 -61
25 -21 60 -61 78 -89 18 -28 59 -78 90 -111 31 -33 84 -94 117 -135 33 -41 92
-103 131 -137 l70 -63 907 0 c984 0 940 -2 926 52 -3 13 -34 53 -68 89 -35 37
-81 90 -103 119 -22 30 -73 89 -112 132 -40 43 -73 84 -73 90 0 6 -18 32 -40
57 -68 78 -114 130 -145 165 -16 18 -52 61 -80 96 -27 34 -76 89 -109 123 -32
34 -64 76 -71 92 -8 17 -42 59 -77 95 -67 69 -107 118 -148 180 -14 20 -48 60
-76 89 -29 28 -58 65 -66 82 -9 17 -48 65 -89 108 -68 72 -116 127 -256 294
-29 34 -61 72 -72 85 -12 12 -29 35 -38 50 -9 15 -28 39 -42 54 -55 56 -105
116 -155 183 -28 39 -80 99 -114 135 -34 36 -62 71 -62 78 0 7 -33 48 -74 90
-89 93 -152 166 -167 193 -6 12 -37 48 -70 81 -32 34 -59 65 -59 70 0 5 -18
28 -40 52 -48 52 -60 98 -36 144 15 30 244 248 316 301 32 24 112 99 310 291
43 41 135 129 205 195 142 133 200 190 231 226 11 13 80 78 153 144 72 66 174
161 225 211 51 51 111 103 134 118 23 14 53 43 66 64 27 43 58 71 104 98 17
10 32 21 32 25 0 6 121 129 215 219 14 14 44 46 66 72 33 38 49 49 90 57 32 7
241 11 578 11 516 0 528 0 546 20 17 19 18 36 12 233 -5 160 -3 218 6 237 15
31 105 69 197 82 36 6 110 22 165 35 55 14 154 35 220 48 66 12 139 31 162 43
24 12 73 29 109 38 37 8 84 24 105 34 20 11 72 27 115 36 43 8 98 26 124 39
25 13 65 28 90 35 24 7 69 24 100 40 30 15 71 31 90 34 19 4 62 21 95 37 33
15 79 33 101 39 23 5 58 22 79 36 21 14 62 34 91 45 49 19 57 19 109 5 31 -8
74 -26 94 -41 21 -14 78 -36 128 -50 49 -13 105 -33 124 -44 19 -11 52 -23 74
-27 22 -4 71 -22 110 -41 38 -18 76 -33 84 -33 8 0 42 -13 75 -29 34 -17 101
-37 150 -46 49 -9 105 -25 125 -36 19 -10 69 -26 110 -35 42 -9 97 -27 122
-40 26 -13 78 -28 115 -34 38 -6 98 -19 134 -29 67 -20 123 -32 270 -56 86
-14 119 -31 153 -77 17 -23 18 -32 8 -94 -6 -38 -18 -153 -26 -254 -12 -134
-23 -204 -40 -255 -12 -38 -28 -120 -34 -181 -6 -61 -21 -142 -32 -180 -11
-38 -30 -107 -42 -154 -12 -47 -34 -105 -48 -130 -15 -25 -30 -63 -34 -84 -3
-22 -19 -63 -35 -92 -15 -29 -33 -76 -40 -106 -7 -29 -23 -69 -36 -88 -12 -19
-28 -55 -34 -80 -7 -25 -22 -56 -35 -70 -12 -14 -28 -43 -35 -65 -7 -22 -23
-60 -36 -85 -13 -25 -34 -70 -47 -100 -13 -30 -31 -61 -40 -68 -9 -8 -23 -35
-32 -61 -9 -27 -27 -58 -40 -71 -13 -13 -30 -39 -36 -59 -6 -20 -25 -54 -40
-75 -16 -22 -29 -45 -29 -51 0 -6 -18 -34 -40 -64 -22 -29 -40 -58 -40 -65 0
-6 -16 -33 -35 -60 -19 -27 -35 -54 -35 -60 0 -13 -67 -117 -106 -164 -15 -19
-38 -55 -51 -80 -44 -90 -137 -234 -190 -295 -18 -20 -33 -46 -33 -56 0 -10
-16 -42 -35 -70 -19 -28 -35 -54 -35 -59 0 -4 -12 -24 -26 -43 -14 -19 -35
-53 -45 -76 -11 -23 -30 -55 -44 -71 -13 -15 -27 -41 -31 -56 -4 -15 -21 -47
-39 -71 -18 -23 -38 -53 -45 -66 -7 -13 -22 -35 -34 -49 -32 -36 -102 -159
-116 -202 -22 -72 -97 -93 -128 -37 -36 66 -103 165 -122 181 -22 18 -77 107
-108 173 -11 22 -27 47 -37 55 -21 17 -88 118 -117 174 -12 23 -34 57 -49 76
-16 19 -29 40 -29 46 0 7 -16 31 -35 54 -19 23 -35 46 -35 51 0 4 -14 24 -30
43 -17 18 -37 53 -45 77 -9 24 -29 58 -46 74 -53 53 -89 102 -109 148 -11 24
-27 50 -36 58 -9 7 -26 36 -39 64 -12 27 -32 59 -45 70 -34 31 -77 97 -100
156 -12 30 -32 65 -45 79 -12 14 -32 43 -44 65 -12 22 -32 54 -44 72 -53 77
-79 125 -93 172 -8 28 -26 63 -40 78 -40 45 -71 93 -108 169 -18 39 -38 74
-44 78 -6 3 -18 30 -27 59 -10 28 -27 63 -40 77 -26 29 -125 228 -125 250 0 9
-8 26 -17 40 -10 13 -29 51 -43 84 -22 53 -30 63 -62 73 -44 14 -1259 26
-1294 12 -32 -12 -39 -45 -21 -103 9 -28 21 -86 26 -129 7 -49 20 -94 35 -120
13 -23 30 -62 36 -87 7 -25 19 -58 28 -75 20 -38 88 -229 113 -320 10 -38 30
-85 43 -105 12 -19 29 -53 36 -75 7 -22 21 -54 32 -72 10 -17 30 -63 43 -102
13 -39 33 -84 43 -99 11 -15 25 -47 32 -72 6 -25 22 -56 35 -70 13 -14 52 -81
87 -150 91 -176 118 -222 144 -245 13 -11 46 -65 75 -120 52 -101 98 -176 142
-230 13 -16 36 -52 51 -80 49 -91 81 -141 109 -176 56 -68 94 -125 106 -159 6
-19 24 -48 40 -65 16 -16 49 -61 74 -100 26 -38 58 -84 71 -101 14 -17 34 -51
44 -75 11 -24 29 -53 42 -64 30 -27 84 -109 108 -165 11 -25 31 -56 46 -69 14
-14 26 -30 26 -37 0 -7 13 -28 28 -46 36 -42 97 -138 116 -181 7 -19 29 -54
47 -80 41 -55 83 -123 121 -197 16 -30 46 -86 68 -125 21 -38 50 -94 64 -124
15 -30 32 -61 39 -69 6 -8 26 -56 43 -106 17 -50 39 -109 47 -131 11 -26 16
-73 17 -136 0 -82 -3 -102 -24 -141 -13 -24 -31 -69 -39 -99 -16 -54 -28 -69
-178 -227 -42 -44 -100 -81 -143 -93 -23 -6 -56 -22 -75 -36 -21 -17 -73 -36
-147 -54 -155 -38 -248 -44 -354 -24 -47 9 -128 23 -180 31 -58 10 -111 25
-137 40 -22 13 -79 33 -126 44 -71 16 -175 58 -223 88 -6 4 -32 22 -59 39 -54
36 -82 40 -125 18 -20 -10 -33 -29 -45 -66 -10 -28 -29 -65 -44 -82 -15 -18
-33 -48 -41 -67 -7 -19 -23 -46 -35 -60 -12 -14 -36 -52 -52 -85 -64 -130 -83
-164 -93 -170 -6 -3 -20 -25 -31 -48 -12 -23 -34 -57 -50 -74 -15 -18 -33 -52
-40 -75 -6 -24 -19 -54 -29 -68 -9 -14 -29 -52 -44 -84 -26 -58 -26 -59 -9
-95 19 -37 122 -120 183 -146 19 -9 67 -31 105 -50 39 -20 76 -35 83 -35 8 0
42 -16 76 -35 35 -19 69 -35 77 -35 8 0 42 -13 77 -30 39 -18 105 -37 175 -49
62 -11 155 -29 207 -40 281 -59 914 -51 1170 14 30 8 97 21 149 29 63 10 106
24 130 39 20 13 54 29 76 36 40 12 188 80 235 107 14 8 45 24 69 35 24 11 58
32 75 47 17 15 60 45 96 67 79 49 299 261 346 333 19 29 52 72 73 95 21 23 50
65 65 92 43 80 92 161 120 198 14 19 26 38 26 44 0 5 11 24 25 43 13 18 32 54
40 79 9 25 29 73 45 106 16 33 47 101 70 150 23 50 54 115 70 145 15 30 33 75
40 100 6 25 23 62 37 83 13 22 31 57 38 78 8 22 25 54 38 72 14 17 30 50 37
72 6 22 24 67 40 100 15 33 49 105 75 160 26 55 58 111 70 125 13 14 33 54 44
90 12 35 32 80 45 100 33 50 61 97 92 155 15 28 37 63 50 78 13 15 29 47 35
70 6 23 23 58 37 77 38 48 67 95 101 164 16 32 39 68 49 80 11 11 27 37 35 57
16 40 72 118 116 164 16 17 32 45 36 63 4 19 20 48 36 67 16 18 35 46 42 61
17 39 84 143 112 174 12 14 28 42 34 62 7 20 25 53 42 74 16 20 29 40 29 45 0
5 13 23 29 42 16 18 37 53 47 78 10 24 28 58 41 75 12 17 29 50 38 73 8 24 28
59 45 77 16 19 30 40 30 47 0 7 13 28 28 47 16 19 39 65 51 102 13 37 27 70
32 74 5 3 24 35 43 72 18 37 53 107 79 155 25 48 53 111 62 140 10 29 28 70
41 93 12 22 28 62 35 87 6 26 24 63 40 83 16 21 33 59 39 91 7 31 20 73 31 92
10 20 27 76 39 124 11 49 28 103 37 120 9 18 24 58 34 91 10 32 29 75 43 95
18 26 29 62 40 136 8 55 26 137 41 182 14 45 30 117 35 161 6 44 22 112 36
152 14 41 30 112 35 159 6 47 17 115 26 151 28 117 42 242 53 460 5 118 15
274 22 345 15 160 15 643 -1 782 -11 104 -23 139 -51 148 -8 2 -82 9 -165 15
-82 6 -181 20 -220 30 -66 18 -129 27 -369 50 -55 6 -141 21 -191 35 -50 13
-124 27 -165 31 -45 4 -96 16 -128 30 -29 13 -96 30 -150 39 -53 9 -128 27
-167 40 -38 13 -109 30 -157 39 -47 8 -105 24 -127 35 -22 12 -72 28 -110 36
-38 8 -85 25 -105 39 -19 13 -62 28 -95 34 -33 6 -76 19 -98 30 -21 10 -70 29
-109 41 -40 11 -97 34 -129 51 -31 16 -62 30 -69 30 -6 0 -36 16 -66 35 -33
22 -73 37 -103 41 -26 4 -63 17 -81 29 -18 12 -57 34 -87 49 -29 14 -100 51
-157 81 -113 59 -166 71 -228 51z M20489 9009 c-19 -19 -19 -83 -21 -3466 -1
-1897 -2 -3461 -1 -3476 1 -16 9 -37 19 -48 17 -18 38 -19 720 -19 738 0 749
1 759 44 3 12 4 1580 3 3484 l-3 3464 -24 19 c-23 19 -45 20 -728 19 -680 -2
-705 -2 -724 -21z M28908 9019 c-17 -9 -18 -186 -18 -3494 l0 -3484 27 -21 27
-21 654 2 653 3 20 24 c17 23 19 42 19 224 0 200 6 238 36 238 25 0 93 -39
104 -60 6 -11 25 -27 43 -36 18 -9 42 -26 55 -37 12 -12 42 -33 66 -47 60 -35
97 -58 173 -107 36 -24 72 -43 80 -43 7 0 39 -13 71 -29 31 -15 79 -33 106
-40 27 -7 70 -23 96 -36 26 -13 77 -31 114 -39 36 -9 83 -24 104 -34 54 -28
74 -31 285 -47 241 -18 433 -18 756 0 245 14 255 15 293 40 23 16 65 30 101
36 34 6 87 21 117 34 30 14 77 29 104 35 27 6 87 26 133 45 46 19 92 35 102
35 10 0 41 15 67 33 27 19 64 39 83 45 19 7 49 23 67 37 19 14 53 33 76 41 23
8 52 23 63 33 11 9 44 32 73 50 28 18 52 36 52 40 0 4 26 25 57 47 57 39 291
268 321 314 34 50 100 136 122 155 12 11 33 40 47 65 44 81 78 136 101 166 13
16 30 45 38 64 8 19 26 51 39 70 13 19 31 67 39 105 8 39 29 100 45 135 17 36
31 78 31 93 0 16 13 59 30 96 16 37 34 101 41 142 6 41 22 119 35 174 56 230
52 850 -5 1017 -11 31 -25 92 -31 135 -7 43 -23 100 -37 127 -13 26 -29 76
-34 110 -6 33 -21 79 -34 101 -13 22 -29 69 -35 105 -14 70 -30 109 -54 129
-8 7 -20 29 -27 49 -6 20 -23 53 -38 72 -14 19 -38 60 -53 90 -50 99 -78 144
-112 180 -19 19 -53 64 -77 100 -24 36 -48 68 -53 72 -6 4 -57 53 -114 110
-140 139 -239 216 -483 372 -30 20 -60 36 -66 36 -6 0 -36 18 -68 39 -32 22
-81 45 -109 52 -28 6 -65 20 -82 30 -18 11 -58 28 -89 39 -32 11 -81 31 -109
45 -28 13 -78 29 -111 34 -33 5 -84 19 -113 30 -58 23 -138 33 -432 56 -246
19 -324 19 -535 0 -289 -26 -354 -34 -413 -55 -31 -12 -87 -27 -124 -35 -37
-8 -93 -28 -124 -45 -31 -16 -64 -30 -74 -30 -9 0 -52 -18 -95 -40 -43 -22
-86 -40 -95 -40 -9 0 -39 -16 -66 -35 -27 -19 -55 -35 -61 -35 -7 0 -30 -15
-50 -34 -21 -18 -49 -39 -63 -46 -14 -7 -41 -26 -60 -42 -62 -52 -130 -98
-143 -98 -37 0 -37 -6 -37 1161 0 1133 -1 1181 -33 1201 -19 12 -1389 9 -1409
-3z m2967 -3009 c33 -6 123 -19 201 -29 89 -12 156 -26 180 -39 22 -11 66 -28
99 -37 33 -10 68 -25 78 -34 11 -8 38 -27 61 -41 24 -14 65 -38 91 -55 58 -36
280 -257 302 -300 9 -16 28 -48 43 -70 64 -94 99 -164 115 -225 9 -36 27 -87
39 -115 13 -27 29 -88 36 -134 6 -46 16 -95 21 -109 19 -49 41 -247 36 -317
-3 -38 -15 -115 -27 -170 -11 -55 -27 -134 -34 -176 -8 -41 -23 -93 -34 -115
-11 -22 -28 -69 -37 -105 -18 -70 -50 -128 -105 -193 -20 -22 -41 -53 -47 -68
-7 -14 -28 -48 -48 -74 -48 -62 -223 -233 -265 -259 -18 -11 -52 -31 -75 -45
-23 -14 -56 -37 -73 -52 -17 -14 -46 -29 -64 -33 -18 -4 -62 -20 -98 -35 -74
-32 -275 -60 -427 -60 -118 0 -399 27 -460 44 -115 33 -313 125 -358 167 -11
10 -38 25 -59 34 -59 25 -289 247 -312 300 -8 19 -25 47 -39 62 -40 43 -105
146 -105 165 0 9 -16 47 -35 84 -20 37 -44 100 -54 138 -11 39 -26 89 -34 111
-52 138 -48 603 7 732 13 32 31 84 39 116 9 33 23 67 32 77 9 10 24 45 34 78
20 65 103 207 126 216 8 3 21 19 30 36 15 29 148 166 225 231 41 35 167 119
178 119 4 0 23 13 42 28 19 16 67 39 105 52 39 12 83 29 98 37 16 8 79 23 140
33 62 11 130 23 152 29 55 12 207 13 280 1z M37380 7203 c-172 -10 -494 -47
-550 -63 -36 -10 -103 -26 -149 -34 -46 -9 -109 -27 -140 -40 -31 -13 -83 -33
-116 -44 -133 -43 -244 -88 -281 -113 -21 -15 -50 -30 -63 -34 -13 -4 -44 -22
-68 -41 -25 -19 -51 -34 -58 -34 -7 0 -26 -11 -42 -24 -15 -13 -44 -31 -63
-41 -92 -47 -400 -376 -417 -444 -3 -14 -16 -41 -30 -58 -13 -18 -30 -52 -39
-75 -8 -23 -25 -60 -38 -83 -29 -51 -30 -55 -56 -260 -24 -184 -23 -286 6
-520 15 -128 28 -180 51 -206 8 -9 23 -41 34 -70 11 -29 28 -64 38 -78 10 -14
29 -51 43 -81 17 -37 56 -87 119 -152 52 -53 102 -108 111 -122 10 -13 31 -27
47 -31 17 -3 49 -22 73 -41 24 -18 48 -34 54 -34 6 0 28 -12 49 -26 78 -52
204 -112 261 -124 32 -6 78 -23 102 -36 23 -14 77 -32 119 -40 42 -8 90 -23
108 -34 17 -11 74 -26 128 -35 54 -9 109 -20 123 -25 60 -23 180 -43 389 -66
32 -3 80 -14 105 -24 25 -10 95 -25 155 -34 61 -9 157 -30 214 -46 57 -17 124
-30 150 -30 25 -1 80 -7 121 -14 87 -16 307 -83 316 -97 3 -5 24 -19 47 -31
46 -23 89 -55 146 -108 68 -63 90 -225 46 -350 -29 -85 -152 -192 -251 -219
-36 -11 -79 -28 -95 -40 -19 -14 -67 -28 -141 -42 -62 -11 -153 -27 -203 -36
-79 -14 -117 -15 -300 -5 -122 6 -233 17 -265 26 -30 9 -109 19 -175 22 -92 5
-140 13 -206 35 -47 15 -134 35 -193 44 -60 8 -134 26 -165 39 -31 13 -74 27
-96 31 -22 4 -65 20 -97 36 -31 16 -78 33 -105 39 -26 6 -64 22 -84 36 -21 14
-65 32 -99 40 -34 8 -74 23 -89 33 -14 10 -48 30 -76 45 -27 15 -64 36 -82 47
-35 22 -88 28 -104 12 -6 -6 -15 -30 -20 -53 -6 -24 -23 -58 -38 -76 -17 -19
-32 -50 -36 -76 -4 -24 -18 -61 -31 -84 -13 -22 -33 -65 -43 -95 -24 -67 -79
-175 -108 -212 -12 -16 -29 -52 -39 -80 -9 -29 -25 -63 -34 -77 -9 -14 -27
-50 -38 -80 -11 -30 -30 -73 -41 -95 -34 -64 -29 -81 32 -111 28 -14 61 -35
72 -45 11 -10 41 -25 65 -34 25 -9 61 -27 80 -40 19 -13 57 -29 84 -35 27 -6
67 -22 90 -35 23 -13 62 -31 86 -40 25 -8 65 -26 90 -39 25 -13 72 -29 105
-36 33 -7 98 -23 144 -36 47 -13 116 -29 155 -35 39 -6 109 -23 156 -39 47
-15 110 -31 140 -35 30 -4 102 -20 160 -35 145 -40 385 -55 860 -55 444 1 663
15 765 51 39 13 106 28 150 35 44 6 109 22 145 36 35 15 95 32 131 39 37 7 96
24 131 37 34 14 88 32 119 41 31 9 73 29 94 46 21 16 43 30 49 30 7 0 33 13
59 30 26 16 58 32 71 36 14 3 33 15 43 26 10 11 41 35 68 53 87 56 244 206
298 285 16 25 38 54 49 66 10 11 33 49 52 85 18 35 56 108 84 161 50 94 52
103 67 230 18 151 34 399 29 443 -45 373 -47 383 -89 455 -8 14 -24 45 -35 70
-55 125 -152 253 -252 337 -101 85 -143 116 -195 146 -26 15 -77 45 -113 66
-36 21 -92 46 -125 56 -33 9 -78 27 -100 40 -22 13 -60 29 -85 35 -25 7 -64
23 -87 37 -27 15 -76 30 -135 39 -51 8 -142 28 -203 43 -60 16 -141 32 -180
35 -38 4 -113 20 -165 35 -52 16 -137 34 -189 40 -52 7 -126 21 -165 32 -39
11 -129 26 -201 34 -173 20 -230 30 -290 53 -27 11 -70 23 -95 27 -25 4 -65
20 -90 35 -25 15 -71 35 -103 44 -119 34 -250 137 -293 230 -39 85 -36 152 10
249 30 63 47 84 91 117 29 22 56 44 59 49 4 5 23 15 44 22 20 7 53 22 72 35
19 12 84 39 144 58 99 33 127 37 285 47 253 16 590 -3 737 -40 44 -11 117 -25
164 -31 47 -7 110 -23 140 -36 30 -13 89 -30 132 -38 42 -8 94 -24 115 -34 21
-11 65 -28 98 -37 33 -10 83 -30 110 -45 28 -15 61 -31 75 -35 13 -4 47 -23
73 -41 37 -26 60 -34 93 -34 61 0 90 28 110 110 9 35 29 87 44 115 15 27 31
61 35 75 4 14 17 39 30 55 12 17 32 52 44 80 12 27 28 56 36 65 8 9 24 43 35
75 11 32 27 66 35 75 8 9 26 45 40 80 14 35 32 71 40 80 19 21 55 117 55 147
0 38 -21 71 -55 88 -18 8 -37 15 -42 15 -5 0 -27 13 -49 29 -21 15 -56 34 -76
40 -20 7 -49 21 -63 33 -15 11 -68 33 -118 48 -51 15 -114 37 -142 48 -27 11
-79 29 -115 40 -36 12 -85 27 -110 36 -101 32 -401 83 -571 96 -77 6 -181 15
-232 20 -83 9 -561 11 -697 3z M14250 7193 c-302 -13 -490 -34 -561 -61 -14
-6 -77 -18 -140 -27 -63 -9 -139 -28 -170 -41 -31 -13 -87 -28 -125 -34 -38
-6 -93 -22 -123 -36 -29 -13 -83 -29 -120 -34 -41 -7 -84 -22 -112 -39 -26
-16 -64 -34 -85 -41 -22 -7 -56 -23 -78 -37 -21 -14 -64 -34 -94 -44 -31 -11
-67 -27 -81 -36 -14 -9 -51 -24 -82 -33 -66 -20 -201 -126 -220 -172 -10 -25
-8 -36 21 -91 18 -34 41 -86 51 -115 10 -30 30 -68 45 -85 37 -45 114 -168
114 -182 0 -6 13 -31 29 -56 15 -25 34 -61 40 -81 6 -20 21 -44 32 -54 12 -11
32 -41 46 -69 14 -27 33 -59 42 -70 10 -11 26 -42 35 -68 19 -52 50 -73 90
-61 27 7 133 62 166 85 14 10 54 28 90 39 36 12 74 30 85 40 11 11 41 26 65
35 24 9 62 26 85 39 22 13 67 29 100 36 33 7 88 23 123 36 35 13 94 29 130 35
37 7 107 25 156 41 126 41 358 55 661 38 190 -10 227 -15 275 -35 30 -12 89
-28 130 -34 41 -7 93 -22 115 -35 22 -13 64 -31 94 -41 67 -22 191 -122 279
-225 73 -85 101 -135 138 -240 59 -171 68 -350 17 -350 -10 0 -369 -2 -798 -4
-741 -3 -785 -5 -885 -24 -58 -12 -157 -29 -220 -38 -63 -9 -160 -28 -215 -41
-55 -14 -141 -33 -192 -43 -55 -11 -107 -29 -130 -44 -21 -13 -57 -29 -79 -35
-23 -6 -58 -24 -78 -40 -20 -16 -51 -33 -69 -36 -18 -4 -62 -24 -98 -46 -36
-21 -70 -39 -75 -39 -6 0 -46 -30 -90 -66 -43 -36 -90 -72 -104 -79 -27 -14
-110 -101 -180 -189 -25 -31 -57 -71 -72 -90 -15 -18 -37 -54 -48 -81 -11 -26
-29 -60 -40 -75 -11 -15 -25 -52 -31 -81 -6 -30 -24 -86 -39 -124 -74 -187
-77 -670 -6 -833 14 -31 30 -79 36 -107 18 -81 78 -193 202 -374 26 -37 175
-188 238 -239 22 -18 56 -40 75 -48 38 -16 181 -109 190 -124 3 -5 28 -16 55
-24 27 -8 69 -26 92 -40 24 -14 71 -32 105 -40 35 -8 77 -23 95 -34 18 -11 68
-27 110 -36 43 -8 96 -25 118 -36 79 -40 447 -66 809 -57 321 9 437 21 519 54
35 14 92 32 125 39 33 8 74 23 91 33 17 11 58 27 91 36 33 10 85 30 115 45 30
15 69 30 86 34 16 4 55 27 85 52 29 25 79 61 109 82 30 20 92 74 138 119 100
100 115 109 137 86 15 -14 16 -42 14 -241 l-4 -224 24 -19 c22 -18 51 -19 640
-21 339 -1 631 -2 649 -1 39 1 74 30 71 59 -1 10 -2 685 -3 1499 -1 1491 -2
1520 -37 1833 -6 51 -19 123 -29 160 -10 37 -23 99 -29 137 -6 39 -19 95 -30
125 -57 165 -72 203 -89 228 -10 15 -29 53 -42 85 -12 31 -27 60 -32 63 -5 3
-19 29 -32 57 -20 46 -57 94 -194 255 -71 84 -198 201 -256 236 -19 12 -56 34
-83 50 -26 16 -57 37 -68 47 -11 9 -48 31 -82 48 -34 17 -64 35 -68 40 -3 6
-38 20 -78 31 -40 12 -101 34 -137 50 -36 15 -81 31 -100 35 -19 4 -64 20
-100 35 -36 15 -98 33 -138 39 -41 6 -90 18 -110 27 -105 44 -697 75 -1092 57z
m1291 -3022 c17 -21 19 -41 19 -185 0 -229 -13 -324 -57 -416 -43 -89 -84
-150 -135 -199 -21 -20 -38 -42 -38 -48 0 -20 -53 -75 -108 -112 -73 -49 -189
-117 -232 -136 -19 -8 -57 -26 -83 -40 -47 -25 -106 -38 -312 -71 -187 -29
-516 -11 -662 37 -49 16 -133 64 -176 101 -134 115 -198 197 -216 279 -29 131
-21 370 15 441 23 45 75 118 84 118 5 0 28 18 52 41 66 63 162 114 288 154
181 58 271 64 953 62 l589 -2 19 -24z M24910 7189 c-265 -18 -399 -32 -466
-50 -39 -10 -115 -26 -168 -34 -54 -9 -125 -27 -159 -40 -79 -31 -273 -88
-392 -115 -27 -6 -66 -21 -85 -34 -19 -13 -53 -29 -74 -36 -22 -7 -83 -36
-135 -63 -53 -28 -127 -67 -166 -87 -106 -55 -147 -81 -180 -114 -17 -17 -41
-39 -54 -49 -21 -17 -23 -25 -17 -65 3 -26 21 -71 40 -102 18 -30 39 -73 46
-95 7 -22 28 -62 47 -89 18 -26 33 -54 33 -61 0 -6 9 -20 20 -30 20 -18 130
-231 130 -252 0 -6 15 -29 33 -51 33 -41 57 -77 94 -144 43 -77 59 -84 107
-43 15 13 45 29 65 36 20 6 56 24 81 40 25 15 67 33 95 39 27 6 64 22 82 36
18 14 57 33 86 43 28 10 68 28 87 39 19 11 69 28 110 38 41 9 91 25 111 35 20
10 76 25 126 33 49 9 121 27 159 40 96 34 417 51 686 36 165 -8 194 -12 248
-35 33 -14 93 -32 133 -39 39 -8 95 -25 122 -39 28 -13 67 -30 89 -37 32 -10
157 -107 218 -168 45 -46 96 -112 108 -143 7 -19 24 -45 36 -59 35 -39 92
-226 100 -329 6 -85 6 -89 -17 -105 -21 -14 -93 -16 -764 -16 -776 -1 -877 -5
-1040 -38 -55 -12 -154 -29 -220 -38 -66 -9 -138 -23 -160 -31 -22 -8 -85 -23
-140 -33 -65 -12 -120 -29 -159 -49 -32 -17 -63 -31 -70 -31 -7 0 -32 -13 -57
-29 -25 -15 -68 -36 -97 -45 -28 -10 -61 -25 -74 -35 -13 -10 -38 -26 -56 -35
-39 -20 -142 -97 -162 -121 -7 -9 -27 -23 -44 -32 -47 -24 -125 -95 -143 -128
-9 -16 -29 -46 -44 -65 -16 -19 -46 -57 -68 -84 -22 -27 -42 -61 -46 -75 -3
-14 -18 -44 -33 -66 -14 -22 -34 -74 -43 -115 -10 -41 -26 -100 -37 -130 -35
-94 -47 -260 -34 -465 6 -103 17 -204 26 -235 9 -30 28 -99 41 -152 14 -53 39
-122 55 -153 17 -31 30 -65 30 -76 0 -10 13 -33 28 -51 39 -45 103 -144 124
-190 9 -21 22 -38 28 -38 6 0 48 -36 93 -80 45 -44 93 -91 107 -104 14 -13 44
-31 65 -40 22 -10 50 -26 62 -37 29 -28 184 -119 202 -119 7 0 37 -13 66 -30
28 -16 81 -36 116 -43 35 -8 84 -24 108 -36 24 -12 74 -29 112 -37 38 -8 86
-23 108 -34 54 -29 121 -37 406 -51 399 -19 785 5 883 55 28 14 77 29 109 32
34 4 78 18 108 34 28 15 73 33 100 39 28 7 66 22 85 33 19 11 58 28 85 38 28
9 81 39 118 66 37 27 82 59 100 71 76 52 150 120 167 154 20 39 77 73 104 63
27 -10 30 -44 27 -261 -2 -203 -2 -212 18 -232 21 -21 24 -21 662 -19 l642 3
16 25 c15 23 16 163 10 1585 -5 1432 -7 1566 -23 1630 -9 39 -23 131 -32 205
-15 137 -30 211 -64 310 -10 30 -22 76 -25 101 -3 26 -18 66 -34 90 -15 24
-33 60 -40 79 -6 19 -22 51 -35 70 -12 19 -28 51 -35 70 -14 41 -73 137 -117
188 -17 21 -58 74 -92 118 -34 45 -74 90 -89 100 -16 10 -60 47 -99 83 -70 64
-200 156 -308 216 -30 17 -62 37 -72 47 -11 9 -50 26 -88 39 -39 12 -84 30
-100 40 -17 10 -62 23 -100 29 -38 6 -87 22 -110 35 -23 13 -72 29 -111 35
-38 6 -97 20 -130 31 -163 52 -822 84 -1195 58z m1402 -3019 c20 -24 20 -33
14 -220 -10 -281 -15 -309 -72 -414 -28 -51 -72 -113 -101 -142 -28 -29 -58
-65 -67 -82 -32 -62 -133 -132 -375 -258 -124 -66 -340 -104 -587 -104 -133 0
-183 4 -290 26 -71 14 -140 34 -154 43 -15 10 -50 31 -78 45 -29 15 -55 33
-58 41 -3 8 -22 24 -42 37 -50 29 -120 105 -160 170 -28 47 -34 72 -48 178
-15 114 -15 132 0 229 9 58 23 114 31 126 9 11 25 35 37 53 11 19 38 45 59 58
22 13 39 28 39 33 0 21 135 105 199 123 36 11 78 27 94 34 82 43 261 52 970
50 l569 -1 20 -25z"/>
</g>
</svg>
